<svg width="1200" height="900" viewBox="0 0 1200 900" fill="none" xmlns="http://www.w3.org/2000/svg">
  <rect width="1200" height="900" rx="60" fill="#2B1B16"/>
  <circle cx="258" cy="250" r="230" fill="#BB7A47"/>
  <circle cx="258" cy="250" r="150" fill="#F4B67E" fill-opacity="0.85"/>
  <path d="M795 115C919 115 1005 191 1005 305C1005 417 924 503 814 525L1000 756H862L711 549H630V756H516V115H795ZM781 451C856 451 890 387 890 321C890 250 851 205 774 205H630V451H781Z" fill="#F8EBDD"/>
  <path d="M205 645C275 531 431 515 539 578C646 641 667 763 611 834H186C151 785 149 717 205 645Z" fill="#8B4D27"/>
  <path d="M250 671C302 619 402 616 471 659C539 701 570 771 548 834H241C220 786 215 708 250 671Z" fill="#F3D4B4"/>
</svg>
