<svg width="1200" height="900" viewBox="0 0 1200 900" fill="none" xmlns="http://www.w3.org/2000/svg">
  <rect width="1200" height="900" rx="60" fill="#EEE5D9"/>
  <circle cx="252" cy="254" r="210" fill="#D4B592"/>
  <circle cx="252" cy="254" r="122" fill="#FFF4E8"/>
  <rect x="122" y="560" width="378" height="178" rx="89" fill="#C59462"/>
  <rect x="190" y="610" width="240" height="78" rx="39" fill="#FFF4E8"/>
  <path d="M617 199C666 160 730 140 808 140C906 140 977 175 1020 247L923 304C899 257 859 231 803 231C751 231 708 248 672 281L617 199ZM785 769C664 769 574 725 515 638L611 580C654 638 708 669 774 669C832 669 879 646 913 609C946 571 963 523 963 464C963 404 945 356 910 319C876 281 829 262 771 262C726 262 687 274 653 298V420H793V511H541V253H621L633 306C678 262 728 240 783 240C882 240 963 270 1027 332C1090 393 1122 472 1122 567C1122 664 1090 742 1025 801C960 859 880 888 785 888C683 888 594 850 517 775L596 704C652 747 715 769 785 769Z" fill="#3B2D25"/>
</svg>
