<svg width="1200" height="900" viewBox="0 0 1200 900" fill="none" xmlns="http://www.w3.org/2000/svg">
  <rect width="1200" height="900" rx="60" fill="#F0E6DA"/>
  <circle cx="256" cy="248" r="214" fill="#E0BE8D"/>
  <circle cx="256" cy="248" r="126" fill="#FFF7E6"/>
  <path d="M207 624C284 540 402 526 501 568C600 611 650 712 630 834H188C155 764 157 678 207 624Z" fill="#D8A468"/>
  <path d="M641 302C641 208 718 140 817 140C916 140 993 205 993 298C993 362 959 408 892 449L860 468V501H752V448L798 414C848 377 878 350 878 305C878 264 852 240 812 240C769 240 741 270 741 315V338H641V302ZM747 637C747 603 774 577 811 577C847 577 874 603 874 637C874 671 847 697 811 697C774 697 747 671 747 637Z" fill="#4D382B"/>
</svg>
